<svg width="130" height="225" viewBox="0 0 130 225" fill="none" xmlns="http://www.w3.org/2000/svg">
<g clip-path="url(#clip0_7_6)">
<path d="M95.2739 0H22.4337C11.1049 0 1.92105 8.9035 1.92105 19.8865V181.253C1.92105 192.236 11.1049 201.14 22.4337 201.14H95.2739C106.603 201.14 115.787 192.236 115.787 181.253V19.8865C115.787 8.9035 106.603 0 95.2739 0Z" fill="#3F3D56"/>
<path d="M113.866 19.8879V181.253C113.86 186.032 111.899 190.613 108.414 193.993C104.928 197.372 100.203 199.272 95.2735 199.278H22.4345C17.5053 199.272 12.7796 197.372 9.29409 193.993C5.8086 190.613 3.84796 186.032 3.84225 181.253V19.8879C3.84796 15.1091 5.80861 10.5277 9.29409 7.14861C12.7796 3.76952 17.5053 1.86872 22.4345 1.86319H31.9594V5.05298C31.9594 6.49705 32.5512 7.88196 33.6045 8.90308C34.6577 9.92419 36.0863 10.4979 37.5758 10.498C49.9071 14.1093 64.3819 13.5456 80.1322 10.498C81.6217 10.4979 83.0502 9.92419 84.1035 8.90308C85.1568 7.88196 85.7485 6.49705 85.7486 5.05298V1.86319H95.2735C100.203 1.86872 104.928 3.76952 108.414 7.14861C111.899 10.5277 113.86 15.1091 113.866 19.8879Z" fill="white"/>
<path d="M1.39712 40.8036C1.02671 40.8032 0.671588 40.6603 0.409668 40.4064C0.147749 40.1525 0.000416686 39.8082 -7.62939e-06 39.4491V36.7401C-7.62939e-06 36.3809 0.147188 36.0364 0.409199 35.7824C0.671211 35.5284 1.02658 35.3857 1.39712 35.3857C1.76766 35.3857 2.12302 35.5284 2.38503 35.7824C2.64704 36.0364 2.79424 36.3809 2.79424 36.7401V39.4491C2.79382 39.8082 2.64648 40.1525 2.38456 40.4064C2.12264 40.6603 1.76753 40.8032 1.39712 40.8036Z" fill="#3F3D56"/>
<path d="M1.39714 54.6942C1.02673 54.6938 0.671611 54.551 0.409691 54.297C0.147771 54.0431 0.000438652 53.6988 1.52588e-05 53.3397V45.8829C1.52588e-05 45.5236 0.147211 45.1791 0.409222 44.9251C0.671234 44.6711 1.0266 44.5284 1.39714 44.5284C1.76768 44.5284 2.12304 44.6711 2.38506 44.9251C2.64707 45.1791 2.79426 45.5236 2.79426 45.8829V53.3397C2.79384 53.6988 2.64651 54.0431 2.38459 54.297C2.12267 54.551 1.76755 54.6938 1.39714 54.6942Z" fill="#3F3D56"/>
<path d="M1.39714 65.8614C1.02673 65.861 0.671611 65.7181 0.409691 65.4642C0.147771 65.2103 0.000438652 64.866 1.52588e-05 64.5069V57.05C1.52588e-05 56.6908 0.147211 56.3463 0.409222 56.0922C0.671234 55.8382 1.0266 55.6955 1.39714 55.6955C1.76768 55.6955 2.12304 55.8382 2.38506 56.0922C2.64707 56.3463 2.79426 56.6908 2.79426 57.05V64.5069C2.79384 64.866 2.64651 65.2103 2.38459 65.4642C2.12267 65.7181 1.76755 65.861 1.39714 65.8614Z" fill="#3F3D56"/>
<path d="M115.962 38.864C115.592 38.8637 115.237 39.0058 114.975 39.2592C114.713 39.5125 114.565 39.8563 114.565 40.215V58.4124C114.565 58.7716 114.712 59.1162 114.974 59.3702C115.236 59.6242 115.591 59.7669 115.962 59.7669C116.332 59.7669 116.688 59.6242 116.95 59.3702C117.212 59.1162 117.359 58.7716 117.359 58.4124V40.215C117.358 39.8565 117.21 39.513 116.948 39.2598C116.686 39.0066 116.332 38.8642 115.962 38.864Z" fill="#3F3D56"/>
<path d="M27.7978 9.84468H18.3672C17.9041 9.84468 17.4599 9.6663 17.1324 9.34878C16.8048 9.03127 16.6208 8.60063 16.6208 8.15159C16.6208 7.70255 16.8048 7.27191 17.1324 6.95439C17.4599 6.63687 17.9041 6.4585 18.3672 6.4585H27.7978C28.261 6.4585 28.7052 6.63687 29.0327 6.95439C29.3602 7.27191 29.5442 7.70255 29.5442 8.15159C29.5442 8.60063 29.3602 9.03127 29.0327 9.34878C28.7052 9.6663 28.261 9.84468 27.7978 9.84468Z" fill="#E6E6E6"/>
<path d="M82.5906 179.376C79.9625 179.535 78.51 176.37 80.4984 174.525C80.5712 174.244 80.6234 174.043 80.6962 173.762C80.6701 173.701 80.644 173.64 80.6176 173.579C77.9598 167.435 72.5783 170.884 66.3171 173.631C61.1531 175.896 55.9481 178.847 60.2671 190.337C61.1744 192.75 60.0863 195.483 60.6698 197.984C55.1763 186.366 52.3237 173.74 52.3053 160.96C52.3042 157.753 52.4879 154.548 52.8558 151.361C53.1599 148.748 53.5817 146.154 54.1212 143.578C56.3873 132.859 60.6377 122.626 66.6664 113.376C65.899 113.386 65.1304 113.394 64.3604 113.4C62.975 115.593 61.6839 117.838 60.4871 120.135C60.7612 117.905 60.8062 115.653 60.6216 113.414C51.285 113.411 41.9553 113.121 33.7066 112.546C34.0194 137.055 43.3513 142.165 54.7949 130.427C55.1153 130.586 55.4276 130.746 55.7481 130.897C52.9916 138.47 51.2626 146.359 50.6045 154.364C50.232 159.087 50.2539 163.831 50.6703 168.551C50.662 168.495 50.6538 168.439 50.6456 168.383C49.5938 163.135 46.7061 158.4 42.4701 154.977C36.1787 149.967 27.2901 148.122 20.5027 144.094C17.2355 142.156 13.0488 144.661 13.619 148.333C13.6281 148.392 13.6373 148.45 13.6468 148.509C14.6585 148.909 15.6437 149.369 16.5965 149.887C17.1417 150.185 17.6754 150.502 18.1976 150.837C21.1737 152.745 20.1451 157.218 16.6188 157.745L16.5389 157.757C16.4814 157.765 16.4321 157.773 16.3746 157.781C18.1034 161.783 20.5298 165.466 23.5476 168.67C24.389 193.842 38.0503 190.597 52.6668 181.057H52.6751C54.1594 187.31 56.31 193.397 59.0922 199.219H82.0162C82.0984 198.972 82.1723 198.717 82.2463 198.47C80.1244 198.599 77.9941 198.476 75.9031 198.104C77.6039 196.08 79.3047 194.041 81.0055 192.018C81.0435 191.98 81.0791 191.94 81.1124 191.898C81.9751 190.863 82.846 189.835 83.7088 188.8L83.7092 188.798C83.7552 185.624 83.3795 182.457 82.5913 179.376L82.5906 179.376Z" fill="#00BFA6"/>
<path d="M58.1637 102.611C55.9398 97.4096 51.7714 93.0292 48.1006 88.5328C43.6914 83.1319 34.6499 85.489 33.8731 92.3354C33.8656 92.4017 33.8582 92.468 33.8511 92.5342C34.3963 92.8324 34.9301 93.1489 35.4522 93.4838C38.4284 95.392 37.3998 99.8647 33.8734 100.392L33.7936 100.404C33.9878 102.309 34.3312 104.197 34.8206 106.052C34.2352 108.177 33.8622 110.352 33.7066 112.546C41.9553 113.121 51.285 113.411 60.6216 113.414C60.3189 109.433 59.4058 105.513 58.1637 102.611Z" fill="#E6E6E6"/>
<path d="M82.1639 96.0194C82.9823 94.441 83.5607 92.7561 83.8812 91.017C83.38 91.0807 81.9914 83.6805 82.3694 83.2265C81.6709 82.199 80.4208 81.6882 79.6579 80.6855C75.864 75.6988 70.637 76.5695 67.9083 83.346C62.0791 86.1983 62.0227 90.9284 65.5994 95.4778C67.875 98.3721 68.1876 102.288 70.1843 105.387C69.9788 105.642 69.7652 105.889 69.5598 106.144C67.4351 108.792 65.466 111.553 63.6619 114.416C64.4317 114.41 65.2004 114.402 65.9679 114.392C67.7786 111.615 69.7486 108.938 71.8686 106.375C76.3117 104.025 79.9049 100.41 82.1639 96.0194Z" fill="#E6E6E6"/>
<path opacity="0.1" d="M113.635 19.8146V106.007C113.635 115.945 3.6111 115.945 3.6111 106.007V19.8146C3.61681 15.0358 5.57745 10.4544 9.06293 7.0753C12.5484 3.69622 17.2741 1.79542 22.2033 1.78989H31.7282V4.97968C31.7283 6.42375 32.32 7.80866 33.3733 8.82978C34.4266 9.85089 35.8551 10.4246 37.3446 10.4247C49.1522 14.0199 63.7291 13.428 79.901 10.4247C81.3906 10.4246 82.8191 9.85089 83.8723 8.82977C84.9256 7.80866 85.5174 6.42375 85.5175 4.97968V1.78989H95.0424C99.9716 1.79542 104.697 3.69622 108.183 7.0753C111.668 10.4544 113.629 15.0358 113.635 19.8146Z" fill="black"/>
<path d="M69.0847 29.1287H65.9412C64.7374 29.13 63.5832 29.5942 62.732 30.4194C61.8807 31.2447 61.4019 32.3636 61.4006 33.5307V36.9169H55.8121C54.6082 36.9182 53.4541 37.3824 52.6028 38.2077C51.7516 39.0329 51.2727 40.1518 51.2714 41.3189V48.0913C51.2727 49.2584 51.7516 50.3773 52.6028 51.2026C53.4541 52.0279 54.6082 52.4921 55.8121 52.4934H62.7977C64.0015 52.4921 65.1557 52.0279 66.0069 51.2026C66.8582 50.3773 67.337 49.2584 67.3383 48.0913V41.3189C67.337 40.1518 66.8582 39.0329 66.0069 38.2077C65.1557 37.3824 64.0015 36.9182 62.7977 36.9169H62.0991V33.5307C62.1003 32.5432 62.5054 31.5964 63.2257 30.8981C63.946 30.1998 64.9226 29.807 65.9412 29.8059H69.0847C70.1034 29.807 71.08 30.1998 71.8002 30.8981C72.5205 31.5964 72.9257 32.5432 72.9268 33.5307V37.2555H73.6254V33.5307C73.6241 32.3636 73.1452 31.2447 72.294 30.4194C71.4427 29.5942 70.2886 29.13 69.0847 29.1287ZM66.6398 41.3189V48.0913C66.6386 49.0789 66.2335 50.0256 65.5132 50.7239C64.7929 51.4222 63.8163 51.815 62.7977 51.8161H55.8121C54.7934 51.815 53.8168 51.4222 53.0966 50.7239C52.3763 50.0256 51.9711 49.0789 51.97 48.0913V41.3189C51.9711 40.3314 52.3763 39.3846 53.0966 38.6863C53.8168 37.988 54.7934 37.5952 55.8121 37.5941C59.1195 39.4597 60.9417 38.4948 62.7977 37.5941C63.8163 37.5952 64.7929 37.988 65.5132 38.6863C66.2335 39.3846 66.6386 40.3314 66.6398 41.3189Z" fill="white"/>
<path d="M59.3049 47.7527C59.9266 47.7527 60.5344 47.574 61.0513 47.2391C61.5683 46.9042 61.9712 46.4283 62.2091 45.8714C62.447 45.3145 62.5093 44.7017 62.388 44.1106C62.2667 43.5194 61.9673 42.9764 61.5277 42.5502C61.088 42.124 60.5279 41.8337 59.9182 41.7161C59.3084 41.5985 58.6763 41.6589 58.1019 41.8895C57.5275 42.1202 57.0365 42.5108 56.6911 43.012C56.3457 43.5132 56.1613 44.1024 56.1613 44.7051C56.1623 45.5131 56.4938 46.2877 57.0831 46.8591C57.6724 47.4304 58.4715 47.7518 59.3049 47.7527ZM59.3049 44.0279C60.653 44.0279 61.7498 43.3981 61.7498 44.7051C61.7498 45.3338 61.4922 45.9367 61.0337 46.3812C60.5752 46.8257 59.9533 47.0755 59.3049 47.0755C58.6564 47.0755 58.0346 46.8257 57.576 46.3812C57.1175 45.9367 56.8599 45.3338 56.8599 44.7051C56.8599 43.3981 57.9567 44.0279 59.3049 44.0279Z" fill="white"/>
<path d="M59.3049 45.721C59.8836 45.721 60.3527 45.2662 60.3527 44.7051C60.3527 44.1441 59.8836 43.6893 59.3049 43.6893C58.7262 43.6893 58.257 44.1441 58.257 44.7051C58.257 45.2662 58.7262 45.721 59.3049 45.721Z" fill="white"/>
<path d="M117.359 48.7686H114.841V49.4458H117.359V48.7686Z" fill="white"/>
<path opacity="0.1" d="M3.76923 104.32V106.013C3.76923 115.951 113.793 115.951 113.793 106.013V104.32C113.793 114.258 3.76923 114.258 3.76923 104.32Z" fill="black"/>
<path d="M100.949 128.546C101.632 128.411 102.234 128.023 102.627 127.464C103.019 126.905 103.172 126.22 103.051 125.554C103.024 125.419 102.986 125.286 102.937 125.157L110.093 119.339L108.326 114.78L99.4111 123.778C98.8757 124.017 98.4371 124.422 98.1638 124.928C97.8905 125.435 97.7978 126.015 97.9002 126.578C98.0243 127.224 98.408 127.795 98.9668 128.167C99.5256 128.538 100.214 128.679 100.88 128.559C100.903 128.555 100.926 128.55 100.949 128.546Z" fill="#A0616A"/>
<path d="M104.318 94.2133L101.48 96.4073C101.48 96.4073 98.089 102.385 100.52 103.625C102.951 104.865 110.509 108.988 110.509 108.988C110.509 108.988 107.385 112.002 107.017 113.466C106.648 114.93 107.464 116.231 106.169 115.925C104.875 115.619 104.838 116.616 104.522 117.871C104.207 119.126 102.102 120.282 102.102 120.282L106.125 123.16C106.125 123.16 107.988 123.797 108.14 122.282C108.293 120.767 107.869 120.981 109.163 121.287C110.458 121.593 111.548 119.629 112.238 117.798C112.927 115.967 119.962 107.442 119.962 107.442L112.602 99.5022C110.355 97.0785 107.502 95.257 104.318 94.2133Z" fill="#00BFA6"/>
<path d="M103.672 218.637L100.742 218.613L99.4448 207.401L103.769 207.437L103.672 218.637Z" fill="#A0616A"/>
<path d="M94.2866 223.154C94.284 223.491 94.4193 223.815 94.6628 224.055C94.9063 224.295 95.2381 224.432 95.5854 224.435L101.411 224.482L102.431 222.478L102.805 224.492L105.003 224.512L104.448 217.327L103.684 217.278L100.564 217.07L99.558 217.004L99.5403 219.037L94.8607 222.114C94.6853 222.23 94.5415 222.384 94.4415 222.565C94.3416 222.747 94.2884 222.949 94.2866 223.154Z" fill="#2F2E41"/>
<path d="M76.7716 218.637L73.8418 218.613L72.5446 207.401L76.869 207.437L76.7716 218.637Z" fill="#A0616A"/>
<path d="M67.3866 223.154C67.384 223.491 67.5193 223.815 67.7627 224.055C68.0062 224.295 68.338 224.432 68.6853 224.435L74.5109 224.482L75.5307 222.478L75.9053 224.492L78.1034 224.512L77.5483 217.327L76.7836 217.278L73.6643 217.07L72.6579 217.004L72.6403 219.037L67.9606 222.114C67.7853 222.23 67.6415 222.384 67.5415 222.565C67.4415 222.747 67.3884 222.949 67.3866 223.154Z" fill="#2F2E41"/>
<path d="M84.3521 123.693C84.3521 123.693 78.726 126.38 80.1927 127.997C81.6594 129.615 80.4539 130.529 78.6257 132.048C76.7976 133.568 73.1172 151.363 73.1172 151.363L68.3515 178.93C68.3515 178.93 69.616 203 70.4645 203.858C71.3131 204.715 72.6189 203.449 71.3131 204.715C70.0073 205.981 68.9626 204.968 70.0073 205.981C71.0519 206.994 71.3131 209.779 71.3131 209.779L78.0807 209.226C78.0807 209.226 82.486 190.724 79.5112 182.528L91.1813 152.545L94.7095 181.475C94.7095 181.475 96.6461 204.968 97.952 205.728C99.2578 206.487 100.199 206.538 99.0753 207.526C97.9519 208.513 97.952 206.994 97.952 208.513V211.033L104.269 211.873C104.269 211.873 107.204 189.351 105.842 178.93L109.966 143.949L106.754 128.185L103.436 123.946L84.3521 123.693Z" fill="#2F2E41"/>
<path d="M57.203 115.167C57.7662 115.566 58.4676 115.736 59.1581 115.641C59.8486 115.546 60.4735 115.193 60.9 114.658C60.9849 114.548 61.0603 114.431 61.1254 114.309L70.3816 115.518L72.6668 111.18L59.8023 110.854C59.2591 110.631 58.6552 110.589 58.085 110.735C57.5147 110.88 57.0101 111.204 56.65 111.657C56.4476 111.916 56.2998 112.212 56.2153 112.527C56.1307 112.841 56.1109 113.169 56.157 113.491C56.2031 113.814 56.3142 114.124 56.484 114.404C56.6537 114.685 56.8788 114.93 57.1464 115.127C57.1651 115.14 57.1839 115.154 57.203 115.167Z" fill="#A0616A"/>
<path d="M85.6474 94.4561L82.0632 93.9003C82.0632 93.9003 77.7614 96.1773 78.4536 98.7544C79.1459 101.331 78.5531 108.843 78.5531 108.843C78.5531 108.843 74.151 108.636 72.7866 109.358C71.4223 110.08 70.9798 111.541 70.3413 110.407C69.7028 109.273 70.376 108.672 69.2065 109.291C68.0371 109.91 64.28 110.427 64.28 110.427L62.7696 115.412C62.7696 115.412 64.8681 118.21 66.126 117.299C67.384 116.387 67.6315 115.03 68.27 116.164C68.9085 117.298 69.0866 119.411 70.9473 118.671C72.8079 117.932 86.0988 114.576 86.0988 114.576L87.7052 99.0085L85.6474 94.4561Z" fill="#00BFA6"/>
<path d="M82.1494 127.537C82.1494 127.537 79.6188 123.621 80.1006 123.047C80.5824 122.473 81.1858 123.465 80.1006 122.463C79.0154 121.46 85.1012 114.769 85.5009 113.783C85.9006 112.798 79.4092 95.5886 79.4092 95.5886L84.9379 92.3604L89.6106 85.9872L97.9674 87.2832L100.908 93.0615L105.061 94.4821L105.41 94.8207V105.318C105.41 105.318 107.258 114.278 103.192 117.363C103.192 117.363 105.132 121.46 104.61 122.22C104.087 122.979 113.479 132.96 106.109 134.1C98.0352 135.349 80.8145 127.094 82.1494 127.537Z" fill="#00BFA6"/>
<path d="M40.6994 224.597C40.6992 224.65 40.7098 224.702 40.7307 224.751C40.7515 224.8 40.7821 224.845 40.8207 224.882C40.8594 224.92 40.9053 224.949 40.9558 224.97C41.0063 224.99 41.0604 225 41.115 225H129.584C129.695 225 129.8 224.958 129.878 224.882C129.956 224.806 130 224.704 130 224.597C130 224.49 129.956 224.388 129.878 224.312C129.8 224.237 129.695 224.194 129.584 224.194H41.115C41.0604 224.194 41.0063 224.204 40.9558 224.224C40.9053 224.245 40.8594 224.274 40.8207 224.312C40.7821 224.349 40.7515 224.394 40.7307 224.443C40.7098 224.492 40.6992 224.544 40.6994 224.597Z" fill="#CCCCCC"/>
<path d="M95.02 87.5826C99.7198 87.5826 103.53 83.889 103.53 79.3327C103.53 74.7764 99.7198 71.0829 95.02 71.0829C90.3203 71.0829 86.5104 74.7764 86.5104 79.3327C86.5104 83.889 90.3203 87.5826 95.02 87.5826Z" fill="#A0616A"/>
<path d="M101.596 73.2336C101.508 72.4912 100.983 71.5736 100.618 70.9154C100.253 70.2573 99.5479 69.7198 98.7785 69.7657C98.4641 69.801 98.1632 69.9095 97.9015 70.0819C97.6397 70.2544 97.4249 70.4857 97.2753 70.756C96.9816 71.3004 96.8216 71.9031 96.8076 72.5173C96.7272 73.8876 96.9633 75.258 97.4985 76.5287C98.0338 77.7993 98.8547 78.9381 99.9016 79.8621C100.498 80.3807 101.216 80.8422 102.017 80.8598C102.38 80.8514 102.739 80.7725 103.071 80.6278C103.402 80.4831 103.701 80.2755 103.949 80.0173C105.245 78.7586 105.441 76.6893 104.749 75.042C104.057 73.3947 103.748 72.7538 102.165 71.8539" fill="#2F2E41"/>
<path d="M89.6413 85.0989C89.7836 85.8329 88.4743 89.3235 88.8927 89.9526C88.8927 89.9526 93.2251 91.4115 94.8816 91.5163C96.9053 91.6432 98.533 90.8384 100.426 89.627C100.46 88.9699 100.656 88.3303 100.998 87.7617C100.969 88.2021 101.062 88.642 101.265 89.0365C108.354 87.3293 106.619 81.1619 102.337 78.2725L99.4911 71.9259C100.345 72.2019 97.7674 67.9384 95.0492 71.0262C91.6479 67.668 85.0589 72.5024 84.2334 76.8208C85.0278 75.8461 85.4415 75.961 85.6453 76.6332C85.8794 76.0678 86.2503 75.5653 86.7268 75.168C86.4898 75.6219 86.3687 76.1244 86.3738 76.6332C91.739 76.956 90.7404 80.465 86.3429 85.7216C87.9691 84.7402 86.8717 88.9693 87.74 89.9802C87.7827 89.2738 89.4876 85.786 89.6413 85.0989Z" fill="#2F2E41"/>
<path d="M97.3838 78.3404C97.4524 78.3403 97.5187 78.3162 97.5704 78.2725C97.6222 78.2287 97.6559 78.1684 97.6653 78.1025C97.6748 78.0365 97.6594 77.9695 97.6219 77.9138C97.5844 77.858 97.5275 77.8173 97.4615 77.799C97.4003 77.4595 97.3938 77.1128 97.442 76.7713C97.5345 75.247 97.6895 72.696 95.1348 70.9739C95.0729 70.9324 94.9965 70.9165 94.9224 70.9295C94.8483 70.9425 94.7825 70.9835 94.7395 71.0434C94.6965 71.1033 94.6798 71.1774 94.693 71.2492C94.7062 71.3211 94.7482 71.385 94.8099 71.4269C97.1025 72.9724 96.9649 75.2391 96.8737 76.7388C96.8217 77.5963 96.7841 78.2156 97.3205 78.3335C97.3413 78.3381 97.3625 78.3404 97.3838 78.3404Z" fill="#00BFA6"/>
<path d="M97.2511 72.3095C98.9883 71.6106 100.839 71.213 102.718 71.135C104.208 71.0738 105.987 71.396 106.592 72.7176C106.96 73.5194 106.764 74.4592 106.428 75.2738C106.092 76.0884 104.52 77.7328 105.425 77.7149C107.698 77.6698 108.668 79.64 107.515 82.7016C106.846 84.4771 110.995 84.4088 112.929 84.6465C111.476 85.1692 110.001 85.6969 108.456 85.8222C106.912 85.9476 105.262 85.6221 104.109 84.6181C102.861 83.5316 102.381 81.8441 102.169 80.231C101.957 78.6179 101.946 76.9567 101.382 75.4252C100.818 73.8938 99.522 72.4675 97.8506 72.3317" fill="#2F2E41"/>
</g>
<defs>
<clipPath id="clip0_7_6">
<rect width="130" height="225" fill="white"/>
</clipPath>
</defs>
</svg>
